<svg viewBox="0 0 164 32" fill="none" xmlns="http://www.w3.org/2000/svg">
<g clip-path="url(#clip0_7680_11003)">
<path d="M33.4775 19.0436L33.4756 27.3739C33.4756 27.6679 33.3183 27.9382 33.0647 28.0857L26.4655 31.8891C25.915 32.2066 25.2278 31.8075 25.2318 31.1724L25.279 23.7721C25.2809 23.4762 25.1227 23.2009 24.8651 23.0545L17.4539 18.8156C17.1964 18.6681 17.0381 18.3938 17.0401 18.098L17.0932 9.74209C17.0951 9.44619 16.9379 9.17291 16.6813 9.02545L10.1106 5.2427C9.56208 4.92715 9.56208 4.1358 10.1106 3.81926L16.5486 0.110236C16.7992 -0.0342713 17.1089 -0.0362374 17.3615 0.105321L24.872 4.30685C25.1315 4.45234 25.2927 4.7266 25.2927 5.02348L25.2908 13.3469C25.2908 13.6399 25.4471 13.9102 25.6997 14.0576L33.0676 18.3339C33.3212 18.4813 33.4766 18.7517 33.4766 19.0446L33.4775 19.0436Z" fill="#7747FF"></path>
<path d="M0.409929 19.2656L6.95797 23.0533C7.21357 23.2008 7.36987 23.475 7.3679 23.7699L7.3217 31.1723C7.31777 31.8073 8.00197 32.2064 8.5505 31.8889L15.1241 28.0855C15.3777 27.939 15.534 27.6677 15.534 27.3738V19.0523C15.536 18.7554 15.3758 18.4812 15.1172 18.3357L7.63431 14.1292C7.38265 13.9877 7.07496 13.9897 6.82428 14.1342L0.409929 17.8422C-0.136643 18.1587 -0.136643 18.9491 0.409929 19.2656Z" fill="#7747FF"></path>
<path d="M42.2422 6.17285H45.0665V14.4383C45.8568 13.9123 47.1486 13.3638 48.6801 13.3638C52.3184 13.3638 54.2088 16.4211 54.2088 19.6464C54.2088 23.8745 50.9775 26.1198 47.412 26.1198C45.8568 26.1198 43.8219 25.6892 42.2422 24.6147V6.17285ZM45.0665 23.205C45.5688 23.5393 46.4545 23.7782 47.3638 23.7782C49.8047 23.7782 51.2174 22.106 51.2174 19.7172C51.2174 17.6155 50.1164 15.728 48.0579 15.728C46.8851 15.728 45.617 16.3493 45.0665 16.8988V23.205Z" fill="currentcolor"></path>
<path d="M67.7788 24.5184C67.1329 25.0915 65.2416 26.1188 62.6807 26.1188C58.6837 26.1188 56.0039 23.6346 56.0039 19.8125C56.0039 15.9905 58.5411 13.3628 62.3219 13.3628C66.1027 13.3628 68.2094 16.2775 68.2094 19.6218V20.7926H58.9235C59.0916 22.3449 60.5033 23.7791 63.1595 23.7791C65.0263 23.7791 66.2472 23.0143 66.8931 22.513L67.7788 24.5193V24.5184ZM65.2661 18.5228C65.1944 16.946 64.1415 15.5845 62.2747 15.5845C60.6232 15.5845 59.1634 16.6353 58.9481 18.5228H65.2661Z" fill="currentcolor"></path>
<path d="M81.7319 24.5184C81.0861 25.0915 79.1947 26.1188 76.6339 26.1188C72.6368 26.1188 69.957 23.6346 69.957 19.8125C69.957 15.9905 72.4943 13.3628 76.275 13.3628C80.0558 13.3628 82.1625 16.2775 82.1625 19.6218V20.7926H72.8767C73.0438 22.3449 74.4564 23.7791 77.1126 23.7791C78.9794 23.7791 80.2003 23.0143 80.8462 22.513L81.7319 24.5193V24.5184ZM79.2193 18.5228C79.1475 16.946 78.0947 15.5845 76.2279 15.5845C74.5764 15.5845 73.1165 16.6353 72.9012 18.5228H79.2193Z" fill="currentcolor"></path>
<path d="M85.5105 25.76V16.0141H83.4766V13.7207H85.5105V11.3555C85.5105 9.94579 85.8457 8.58428 86.6115 7.67693C87.4972 6.64965 88.9334 6.24365 90.2487 6.24365C91.9956 6.24365 93.2637 6.96029 93.4554 7.10381L92.3544 9.27732C92.091 9.08661 91.3488 8.63245 90.3923 8.63245C88.9806 8.63245 88.3102 9.63613 88.3102 11.3083V13.7207H91.3498V16.0141H88.3102V25.76H85.5105Z" fill="currentcolor"></path>
<path d="M93.3633 25.7599V13.697H96.1876V15.5599C96.451 14.9868 97.4085 13.3618 98.8201 13.3618C99.873 13.3618 100.52 13.6961 100.974 13.9595L99.9447 16.5872C99.6095 16.3483 99.0836 16.0141 98.3414 16.0141C96.9769 16.0141 96.1876 17.5427 96.1876 19.0477V25.7599H93.3633Z" fill="currentcolor"></path>
<path d="M113.345 24.5184C112.699 25.0915 110.808 26.1188 108.247 26.1188C104.25 26.1188 101.57 23.6346 101.57 19.8125C101.57 15.9905 104.108 13.3628 107.888 13.3628C111.669 13.3628 113.776 16.2775 113.776 19.6218V20.7926H104.49C104.658 22.3449 106.07 23.7791 108.726 23.7791C110.593 23.7791 111.814 23.0143 112.459 22.513L113.345 24.5193V24.5184ZM110.833 18.5228C110.761 16.946 109.708 15.5845 107.841 15.5845C106.19 15.5845 104.73 16.6353 104.515 18.5228H110.833Z" fill="currentcolor"></path>
<path d="M127.298 24.5184C126.652 25.0915 124.761 26.1188 122.2 26.1188C118.203 26.1188 115.523 23.6346 115.523 19.8125C115.523 15.9905 118.061 13.3628 121.841 13.3628C125.622 13.3628 127.729 16.2775 127.729 19.6218V20.7926H118.443C118.61 22.3449 120.023 23.7791 122.679 23.7791C124.546 23.7791 125.767 23.0143 126.413 22.513L127.298 24.5193V24.5184ZM124.786 18.5228C124.714 16.946 123.661 15.5845 121.794 15.5845C120.143 15.5845 118.683 16.6353 118.468 18.5228H124.786Z" fill="currentcolor"></path>
<path d="M133.224 23.5628C133.703 24.1201 134.676 24.9321 136.319 24.9321C137.755 24.9321 138.824 24.072 138.824 22.7183C138.824 19.2944 133.24 20.0906 133.24 16.5075C133.24 14.5168 134.915 13.4502 136.685 13.4502C138.217 13.4502 139.286 14.2622 139.653 14.6603L139.015 15.4723C138.505 14.9631 137.771 14.4853 136.702 14.4853C135.554 14.4853 134.437 15.1066 134.437 16.3964C134.437 19.2787 140.053 18.4185 140.053 22.7026C140.053 24.3433 138.665 25.983 136.224 25.983C134.549 25.983 133.049 25.0757 132.555 24.3905L133.225 23.5628H133.224Z" fill="currentcolor"></path>
<path d="M142.383 25.7596V13.7036H145.159C148.732 13.7036 151.684 15.7896 151.684 19.7395C151.684 23.4819 149.02 25.7596 145.191 25.7596H142.384H142.383ZM144.983 24.7245C148.157 24.7245 150.471 23.1477 150.471 19.6923C150.471 16.2369 148.046 14.7397 145.078 14.7397H143.531V24.7255H144.983V24.7245Z" fill="currentcolor"></path>
<path d="M161.304 25.7596L155.29 20.3765V25.7596H154.141V13.7036H155.29V19.1025L160.65 13.7036H162.198L156.231 19.6913L163.107 25.7587H161.304V25.7596Z" fill="currentcolor"></path>
</g>
<defs>
<clipPath id="clip0_7680_11003">
<rect width="163.105" height="32" fill="white"></rect>
</clipPath>
</defs>
</svg>